name ./resultDataOpenSim/trcMotMarkerGrf/sub06/grf-02-05.mot
datacolumns 19
datarows 15
range 1.45200000 1.50800000
endheader

                time	     ground_force_vx	     ground_force_vy	     ground_force_vz	     ground_force_px	     ground_force_py	     ground_force_pz	   l_ground_force_vx	   l_ground_force_vy	   l_ground_force_vz	   l_ground_force_px	   l_ground_force_py	   l_ground_force_pz	     ground_torque_x	     ground_torque_y	     ground_torque_z	   l_ground_torque_x	   l_ground_torque_y	   l_ground_torque_z	
          1.45200000	        106.10194008	        710.31040715	        -16.76539565	          0.80557639	          0.00000000	          0.08281578	          0.00000000	          0.00000000	          0.00000000	          0.00000000	          0.00000000	          0.00000000	          0.00000000	          5.02370971	          0.00000000	          0.00000000	          0.00000000	          0.00000000	
          1.45600000	        111.54442996	        720.90835424	        -17.21109782	          0.80603868	          0.00000000	          0.08256724	          0.00000000	          0.00000000	          0.00000000	          0.00000000	          0.00000000	          0.00000000	          0.00000000	          5.06950999	          0.00000000	          0.00000000	          0.00000000	          0.00000000	
          1.46000000	        116.85367412	        730.66060430	        -17.43182091	          0.80651835	          0.00000000	          0.08232062	          0.00000000	          0.00000000	          0.00000000	          0.00000000	          0.00000000	          0.00000000	          0.00000000	          5.05387926	          0.00000000	          0.00000000	          0.00000000	          0.00000000	
          1.46400000	        122.18003641	        739.47020916	        -17.53234749	          0.80699503	          0.00000000	          0.08207678	          0.00000000	          0.00000000	          0.00000000	          0.00000000	          0.00000000	          0.00000000	          0.00000000	          4.99187392	          0.00000000	          0.00000000	          0.00000000	          0.00000000	
          1.46800000	        127.65076548	        747.23287040	        -17.65600907	          0.80745836	          0.00000000	          0.08184019	          0.00000000	          0.00000000	          0.00000000	          0.00000000	          0.00000000	          0.00000000	          0.00000000	          4.90351171	          0.00000000	          0.00000000	          0.00000000	          0.00000000	
          1.47200000	        133.33697003	        753.84954169	        -17.95172741	          0.80791134	          0.00000000	          0.08161369	          0.00000000	          0.00000000	          0.00000000	          0.00000000	          0.00000000	          0.00000000	          0.00000000	          4.80946414	          0.00000000	          0.00000000	          0.00000000	          0.00000000	
          1.47600000	        139.23609572	        759.23089628	        -18.53780699	          0.80835732	          0.00000000	          0.08139654	          0.00000000	          0.00000000	          0.00000000	          0.00000000	          0.00000000	          0.00000000	          0.00000000	          4.72711720	          0.00000000	          0.00000000	          0.00000000	          0.00000000	
          1.48000000	        145.27447953	        763.29555716	        -19.47074071	          0.80880475	          0.00000000	          0.08118823	          0.00000000	          0.00000000	          0.00000000	          0.00000000	          0.00000000	          0.00000000	          0.00000000	          4.66797623	          0.00000000	          0.00000000	          0.00000000	          0.00000000	
          1.48400000	        151.32524435	        765.96669441	        -20.72604647	          0.80926161	          0.00000000	          0.08099083	          0.00000000	          0.00000000	          0.00000000	          0.00000000	          0.00000000	          0.00000000	          0.00000000	          4.63661502	          0.00000000	          0.00000000	          0.00000000	          0.00000000	
          1.48800000	        157.23583308	        767.17084014	        -22.19370198	          0.80972468	          0.00000000	          0.08080642	          0.00000000	          0.00000000	          0.00000000	          0.00000000	          0.00000000	          0.00000000	          0.00000000	          4.63073437	          0.00000000	          0.00000000	          0.00000000	          0.00000000	
          1.49200000	        162.87291825	        766.83791153	        -23.69020428	          0.81020220	          0.00000000	          0.08063166	          0.00000000	          0.00000000	          0.00000000	          0.00000000	          0.00000000	          0.00000000	          0.00000000	          4.64174379	          0.00000000	          0.00000000	          0.00000000	          0.00000000	
          1.49600000	        168.18445588	        764.89083276	        -24.98660961	          0.81070272	          0.00000000	          0.08045960	          0.00000000	          0.00000000	          0.00000000	          0.00000000	          0.00000000	          0.00000000	          0.00000000	          4.65559453	          0.00000000	          0.00000000	          0.00000000	          0.00000000	
          1.50000000	        173.25899267	        761.23332103	        -25.85319776	          0.81121300	          0.00000000	          0.08028545	          0.00000000	          0.00000000	          0.00000000	          0.00000000	          0.00000000	          0.00000000	          0.00000000	          4.65414396	          0.00000000	          0.00000000	          0.00000000	          0.00000000	
          1.50400000	        178.33495647	        755.76200434	        -26.13110473	          0.81170429	          0.00000000	          0.08010495	          0.00000000	          0.00000000	          0.00000000	          0.00000000	          0.00000000	          0.00000000	          0.00000000	          4.61781474	          0.00000000	          0.00000000	          0.00000000	          0.00000000	
          1.50800000	        183.68723532	        748.38945815	        -25.80070218	          0.81209025	          0.00000000	          0.07991443	          0.00000000	          0.00000000	          0.00000000	          0.00000000	          0.00000000	          0.00000000	          0.00000000	          4.53020819	          0.00000000	          0.00000000	          0.00000000	          0.00000000	
